#!OML:ASF E:\Steps\Project 1\Capture day 1\Session 2\Subject.ASF
:FULLY-SPECIFIED
:DEGREES
366
root 12.2793 17.2058 17.0495 -153.291 -1.58149 177.316
lowerback -26.744 -2.41009 -5.7534
upperback -0.0373472 -1.70663 -0.139333
thorax 15.1853 -1.33528 2.44917
lowerneck -1.24426 -3.63707 0.282145
upperneck 12.1038 -4.24438 -1.60181
head 4.13162 -1.94767 -0.734436
rclavicle 1.48592e-014 6.16232e-015
rhumerus -34.6832 -20.196 -77.8542
rradius 28.2752
rwrist -1.43801
rhand -4.63389 -47.3311
rfingers 7.12502
rthumb 21.1451 -76.198
lclavicle 1.48592e-014 6.16232e-015
lhumerus -28.0901 0.903431 83.3554
lradius 27.4885
lwrist -3.20931
lhand -20.7218 -12.4564
lfingers 7.12502
lthumb 5.64292 17.4485
rfemur -24.9492 3.78196 20.4023
rtibia 7.69621
rfoot -17.1404 4.31364
rtoes -17.7627
lfemur -24.1627 -7.58574 -22.4601
ltibia 6.96368
lfoot -4.32669 -3.45557
ltoes 2.50295
367
root 12.2797 17.2026 17.0344 -153.337 -1.50593 177.294
lowerback -26.9434 -2.40627 -5.7906
upperback 0.220617 -1.6908 -0.115263
thorax 14.8205 -1.32035 2.37425
lowerneck -1.50818 -3.51189 0.251993
upperneck 12.151 -4.07892 -1.62939
head 4.20247 -1.87225 -0.739104
rclavicle -3.52843e-015 5.76476e-015
rhumerus -34.5652 -19.7033 -78.1735
rradius 28.5781
rwrist -1.8902
rhand -4.61089 -48.8006
rfingers 7.12502
rthumb 21.1672 -77.6651
lclavicle -3.52843e-015 5.76476e-015
lhumerus -28.0491 0.973789 83.5088
lradius 27.1876
lwrist -3.21682
lhand -20.594 -12.4773
lfingers 7.12502
lthumb 5.76638 17.4242
rfemur -24.829 3.65685 20.4172
rtibia 7.65922
rfoot -17.1382 4.46497
rtoes -17.9735
lfemur -24.0403 -7.51765 -22.525
ltibia 6.9761
lfoot -4.42957 -3.47015
ltoes 1.60654
368
root 12.2794 17.2008 17.024 -153.432 -1.40672 177.153
lowerback -27.0568 -2.39094 -5.93541
upperback 0.107912 -1.62602 -0.223355
thorax 14.7354 -1.30241 2.35616
lowerneck -1.64299 -3.45327 0.244822
upperneck 12.235 -4.00757 -1.55005
head 4.26221 -1.8337 -0.713047
rclavicle -1.15792e-014 -4.57205e-015
rhumerus -34.6975 -19.0857 -78.5561
rradius 29.1256
rwrist -2.55316
rhand -4.9953 -52.2843
rfingers 7.12502
rthumb 20.7979 -81.1896
lclavicle -1.15792e-014 -4.57205e-015
lhumerus -28.1788 0.944618 83.6253
lradius 27.0005
lwrist -3.25689
lhand -20.597 -12.4749
lfingers 7.12502
lthumb 5.76348 17.4267
rfemur -24.7099 3.64703 20.2455
rtibia 7.69395
rfoot -17.2039 4.42039
rtoes -18.3362
lfemur -23.8939 -7.53367 -22.7275
ltibia 6.9989
lfoot -4.4466 -3.45996
ltoes 1.66636
369
root 12.2786 17.1986 17.0131 -153.531 -1.33947 177.12
lowerback -27.1833 -2.3258 -5.96389
upperback 0.0161712 -1.53002 -0.31392
thorax 14.6772 -1.26244 2.30564
lowerneck -1.13792 -3.26658 0.508016
upperneck 11.4079 -3.79552 -1.75507
head 3.85881 -1.74244 -0.794608
rclavicle -3.67752e-015 -1.59028e-015
rhumerus -34.8267 -18.6617 -78.8353
rradius 29.6546
rwrist -3.00606
rhand -5.87623 -56.54
rfingers 7.12502
rthumb 19.9513 -85.5358
lclavicle -3.67752e-015 -1.59028e-015
lhumerus -28.3197 0.74909 83.8069
lradius 26.89
lwrist -3.20536
lhand -20.714 -12.4044
lfingers 7.12502
lthumb 5.65048 17.5003
rfemur -24.6 3.6409 20.2121
rtibia 7.75905
rfoot -17.3192 4.34203
rtoes -19.313
lfemur -23.7195 -7.57062 -22.7848
ltibia 6.94803
lfoot -4.41048 -3.42301
ltoes 2.03625
370
root 12.2795 17.1958 17.0018 -153.571 -1.2711 177.141
lowerback -27.3976 -2.30481 -5.96491
upperback -0.0261835 -1.49628 -0.345587
thorax 14.7261 -1.25141 2.27817
lowerneck -0.895272 -3.37764 0.496478
upperneck 10.7052 -4.02225 -1.50801
head 3.56679 -1.86496 -0.703355
rclavicle 3.08116e-015 -1.21259e-014
rhumerus -34.7005 -18.248 -79.1525
rradius 30.1379
rwrist -3.31542
rhand -5.40334 -54.5774
rfingers 7.12502
rthumb 20.4058 -83.5252
lclavicle 3.08116e-015 -1.21259e-014
lhumerus -28.266 0.562333 84.0428
lradius 26.6308
lwrist -2.80103
lhand -21.1446 -12.6965
lfingers 7.12502
lthumb 5.23476 17.2189
rfemur -24.5134 3.71058 20.2241
rtibia 7.71395
rfoot -17.458 4.32854
rtoes -20.3161
lfemur -23.6253 -7.50993 -22.7783
ltibia 6.95071
lfoot -4.53604 -3.50222
ltoes 1.76781
371
root 12.2826 17.1936 16.9921 -153.613 -1.23752 177.1
lowerback -27.6219 -2.33961 -6.05983
upperback -0.0320021 -1.50157 -0.365999
thorax 14.8273 -1.26509 2.2986
lowerneck -0.895015 -3.40486 0.516888
upperneck 10.2261 -4.10454 -1.4635
head 3.39917 -1.9192 -0.687893
rclavicle -2.48481e-015 -1.07344e-014
rhumerus -34.3819 -17.9976 -79.4741
rradius 30.4822
rwrist -3.53933
rhand -5.55483 -54.7126
rfingers 7.12502
rthumb 20.2603 -83.6759
lclavicle -2.48481e-015 -1.07344e-014
lhumerus -28.1019 0.473837 84.2326
lradius 26.2509
lwrist -2.77335
lhand -21.6661 -12.9694
lfingers 7.12502
lthumb 4.73116 16.9577
rfemur -24.4291 3.78504 20.1668
rtibia 7.69252
rfoot -17.6237 4.32854
rtoes -20.7972
lfemur -23.5593 -7.39748 -22.8389
ltibia 6.99681
lfoot -4.66967 -3.64522
ltoes 0.982983
372
root 12.2841 17.1911 16.9806 -153.739 -1.24079 177.067
lowerback -27.7292 -2.30855 -6.11817
upperback -0.0895814 -1.43919 -0.435014
thorax 14.8035 -1.24263 2.2757
lowerneck -1.04333 -3.35078 0.689514
upperneck 10.2097 -4.03385 -1.60709
head 3.41564 -1.88604 -0.765183
rclavicle 3.47873e-016 -4.37326e-015
rhumerus -34.263 -18.3909 -79.442
rradius 30.4197
rwrist -2.9878
rhand -5.29855 -54.1325
rfingers 7.12502
rthumb 20.5065 -83.0695
lclavicle 3.47873e-016 -4.37326e-015
lhumerus -28.108 0.463518 84.2956
lradius 26.0019
lwrist -3.1441
lhand -21.7878 -12.8212
lfingers 7.12502
lthumb 4.61369 17.1085
rfemur -24.2384 3.84247 20.1282
rtibia 7.69036
rfoot -17.5247 4.33093
rtoes -20.0218
lfemur -23.3704 -7.41256 -22.8747
ltibia 6.9877
lfoot -4.6433 -3.6303
ltoes 0.744655
373
root 12.2833 17.1889 16.9687 -153.864 -1.24885 177.032
lowerback -27.7808 -2.29922 -6.16111
upperback -0.145972 -1.41727 -0.464386
thorax 14.7593 -1.23693 2.2738
lowerneck -1.28064 -3.25342 0.763858
upperneck 10.1335 -3.91375 -1.70659
head 3.43235 -1.83413 -0.810909
rclavicle -2.04251e-014 9.74045e-015
rhumerus -34.1441 -18.5453 -79.4132
rradius 30.5229
rwrist -2.48409
rhand -4.60173 -53.5838
rfingers 7.12502
rthumb 21.176 -82.4473
lclavicle -2.04251e-014 9.74045e-015
lhumerus -28.1649 0.703916 84.3268
lradius 25.937
lwrist -3.33543
lhand -21.4007 -12.4894
lfingers 7.12502
lthumb 4.98747 17.4319
rfemur -24.0174 3.88626 20.0893
rtibia 7.63682
rfoot -17.3553 4.32828
rtoes -18.8067
lfemur -23.1985 -7.37632 -22.946
ltibia 7.02362
lfoot -4.58028 -3.73293
ltoes 1.97694
374
root 12.2835 17.1892 16.9582 -153.966 -1.29078 176.946
lowerback -27.859 -2.35961 -6.26075
upperback -0.143075 -1.46172 -0.461591
thorax 14.8049 -1.2659 2.31118
lowerneck -1.52933 -3.18374 0.708794
upperneck 9.79059 -3.85415 -1.71885
head 3.36243 -1.82212 -0.803942
rclavicle 6.31141e-015 4.53229e-014
rhumerus -33.7439 -18.1378 -79.718
rradius 30.7598
rwrist -3.07914
rhand -5.14746 -53.9457
rfingers 7.12502
rthumb 20.6517 -82.867
lclavicle 6.31141e-015 4.53229e-014
lhumerus -28.1803 0.749619 84.4911
lradius 25.9359
lwrist -2.97779
lhand -21.1032 -12.3261
lfingers 7.12502
lthumb 5.27468 17.5882
rfemur -23.803 3.85715 20.0163
rtibia 7.55416
rfoot -17.3661 4.26844
rtoes -18.6889
lfemur -23.079 -7.25401 -23.0876
ltibia 7.11173
lfoot -4.60023 -3.98272
ltoes 1.8944
